<svg width="11" height="13" viewBox="0 0 11 13" fill="none" xmlns="http://www.w3.org/2000/svg">
<path fill-rule="evenodd" clip-rule="evenodd" d="M5.02609 12.464L5.02656 12.4622L5.02976 12.4505L5.04441 12.3979C5.05786 12.3503 5.07868 12.2778 5.10703 12.1831C5.16375 11.9935 5.25048 11.7149 5.36837 11.3668C5.60442 10.6698 5.96402 9.69813 6.45594 8.60666C7.44814 6.40516 8.94228 3.79857 10.9821 1.94655L9.63768 0.46582C7.30248 2.58603 5.67162 5.47944 4.63257 7.78488C4.29901 8.52498 4.02271 9.21298 3.80086 9.80746C3.12115 8.97211 2.09362 8.06911 0.619764 7.58874L0 9.49029C1.14827 9.86454 1.9281 10.6166 2.43208 11.3065C2.68303 11.65 2.85839 11.9688 2.9695 12.1982C3.0248 12.3123 3.06345 12.4028 3.08702 12.4611C3.09879 12.4902 3.10674 12.5111 3.11107 12.5228L3.11467 12.5327L3.11478 12.5329L3.11487 12.5332M5.026 12.4643L5.02609 12.464L5.026 12.4643Z" fill="#2A8927"/>
</svg>
