<svg width="15" height="15" viewBox="0 0 15 15" fill="none" xmlns="http://www.w3.org/2000/svg">
<path d="M6.65136 15C6.40008 15 6.18982 14.9153 6.02058 14.7461C5.85135 14.5769 5.76673 14.3666 5.76673 14.1153V8.32688L0.168684 1.21538C-0.0236161 0.95896 -0.0514992 0.692293 0.0850341 0.415376C0.221567 0.13846 0.452009 0 0.776359 0H13.7571C14.0814 0 14.3119 0.13846 14.4484 0.415376C14.5849 0.692293 14.557 0.95896 14.3647 1.21538L8.76668 8.32688V14.1153C8.76668 14.3666 8.68207 14.5769 8.51283 14.7461C8.3436 14.9153 8.13334 15 7.88206 15H6.65136ZM7.26671 7.79998L12.2167 1.49998H2.31671L7.26671 7.79998Z" fill="#F8F8F8"/>
</svg>
