<svg width="20" height="20" viewBox="0 0 20 20" fill="none" xmlns="http://www.w3.org/2000/svg">
<path d="M10.05 20C9.09997 20 8.2583 19.7 7.52497 19.1C6.79163 18.5 6.3333 17.7333 6.14997 16.8C5.26663 17.0833 4.37497 17.0667 3.47497 16.75C2.57497 16.4333 1.8833 15.8833 1.39997 15.1C0.899967 14.3 0.716633 13.4125 0.849967 12.4375C0.9833 11.4625 1.41663 10.65 2.14997 10C1.44997 9.36667 1.02913 8.58333 0.887467 7.65C0.7458 6.71667 0.899967 5.85 1.34997 5.05C1.79997 4.25 2.47913 3.67083 3.38747 3.3125C4.2958 2.95417 5.19997 2.91667 6.09997 3.2C6.2833 2.26667 6.74163 1.5 7.47497 0.9C8.2083 0.3 9.04997 0 9.99997 0C10.95 0 11.7916 0.3 12.525 0.9C13.2583 1.5 13.7166 2.26667 13.9 3.2C14.8333 2.91667 15.7375 2.94167 16.6125 3.275C17.4875 3.60833 18.1666 4.2 18.65 5.05C19.1 5.88333 19.2625 6.75417 19.1375 7.6625C19.0125 8.57083 18.5833 9.35 17.85 10C18.5833 10.65 19.0208 11.4542 19.1625 12.4125C19.3041 13.3708 19.15 14.2667 18.7 15.1C18.2166 15.95 17.5375 16.5167 16.6625 16.8C15.7875 17.0833 14.8833 17.0833 13.95 16.8C13.7666 17.7333 13.3083 18.5 12.575 19.1C11.8416 19.7 11 20 10.05 20ZM10.05 18C10.8333 18 11.4208 17.6625 11.8125 16.9875C12.2041 16.3125 12.2 15.65 11.8 15L11.1 13.85C10.9166 13.9 10.7416 13.9375 10.575 13.9625C10.4083 13.9875 10.2333 14 10.05 14C9.8833 14 9.71247 13.9875 9.53747 13.9625C9.36247 13.9375 9.1833 13.9 8.99997 13.85L8.29997 15C7.89997 15.65 7.8958 16.3125 8.28747 16.9875C8.67913 17.6625 9.26663 18 10.05 18ZM3.04997 14C3.44997 14.6833 4.03747 15.025 4.81247 15.025C5.58747 15.025 6.16663 14.6833 6.54997 14L7.19997 12.85C7.06663 12.7167 6.94163 12.575 6.82497 12.425C6.7083 12.275 6.6083 12.1167 6.52497 11.95C6.44163 11.8 6.36663 11.6458 6.29997 11.4875C6.2333 11.3292 6.17497 11.1667 6.12497 11H4.79997C4.01663 11 3.4333 11.3292 3.04997 11.9875C2.66663 12.6458 2.66663 13.3167 3.04997 14ZM13.45 14C13.8333 14.6833 14.4125 15.025 15.1875 15.025C15.9625 15.025 16.55 14.6833 16.95 14C17.3333 13.3167 17.3333 12.6458 16.95 11.9875C16.5666 11.3292 15.9833 11 15.2 11H13.875C13.8416 11.1667 13.7875 11.3292 13.7125 11.4875C13.6375 11.6458 13.5583 11.8 13.475 11.95C13.3916 12.1167 13.2916 12.275 13.175 12.425C13.0583 12.575 12.9333 12.7167 12.8 12.85L13.45 14ZM6.12497 9C6.17497 8.81667 6.23747 8.6375 6.31247 8.4625C6.38747 8.2875 6.46663 8.125 6.54997 7.975C6.6333 7.825 6.72913 7.68333 6.83747 7.55C6.9458 7.41667 7.06663 7.28333 7.19997 7.15L6.54997 6C6.16663 5.31667 5.58747 4.975 4.81247 4.975C4.03747 4.975 3.44997 5.31667 3.04997 6C2.66663 6.68333 2.66663 7.35417 3.04997 8.0125C3.4333 8.67083 4.01663 9 4.79997 9H6.12497ZM15.2 9C15.9833 9 16.5666 8.67083 16.95 8.0125C17.3333 7.35417 17.3333 6.68333 16.95 6C16.55 5.31667 15.9625 4.975 15.1875 4.975C14.4125 4.975 13.8333 5.31667 13.45 6L12.8 7.15C12.9333 7.28333 13.0541 7.41667 13.1625 7.55C13.2708 7.68333 13.3666 7.825 13.45 7.975C13.5333 8.125 13.6125 8.2875 13.6875 8.4625C13.7625 8.6375 13.825 8.81667 13.875 9H15.2ZM8.92497 6.15C9.1083 6.1 9.28747 6.0625 9.46247 6.0375C9.63747 6.0125 9.81663 6 9.99997 6C10.1833 6 10.3625 6.0125 10.5375 6.0375C10.7125 6.0625 10.8916 6.1 11.075 6.15L11.75 5C12.1333 4.35 12.1333 3.6875 11.75 3.0125C11.3666 2.3375 10.7833 2 9.99997 2C9.21663 2 8.6333 2.33333 8.24997 3C7.86663 3.66667 7.86663 4.33333 8.24997 5L8.92497 6.15ZM9.99997 12C10.55 12 11.0208 11.8042 11.4125 11.4125C11.8041 11.0208 12 10.55 12 10C12 9.45 11.8041 8.97917 11.4125 8.5875C11.0208 8.19583 10.55 8 9.99997 8C9.44997 8 8.97913 8.19583 8.58747 8.5875C8.1958 8.97917 7.99997 9.45 7.99997 10C7.99997 10.55 8.1958 11.0208 8.58747 11.4125C8.97913 11.8042 9.44997 12 9.99997 12Z" fill="#2A8927"/>
</svg>
