<svg width="19" height="16" viewBox="0 0 19 16" fill="none" xmlns="http://www.w3.org/2000/svg">
<path d="M0.5 1C0.5 0.447715 0.5 0 0.5 0H18.5C18.5 0 18.5 0.447715 18.5 1C18.5 1.55228 18.5 2 18.5 2H0.5C0.5 2 0.5 1.55228 0.5 1Z" fill="#121212"/>
<path d="M0.5 8C0.5 7.44772 0.5 7 0.5 7H18.5C18.5 7 18.5 7.44772 18.5 8C18.5 8.55228 18.5 9 18.5 9H0.5C0.5 9 0.5 8.55228 0.5 8Z" fill="#121212"/>
<path d="M0.500782 15C0.500782 14.4477 0.5 14 0.5 14H18.5C18.5 14 18.5 14.4477 18.5 15C18.5 15.5523 18.5 16 18.5 16H0.5C0.5 16 0.500782 15.5523 0.500782 15Z" fill="#121212"/>
</svg>
