<svg width="20" height="20" viewBox="0 0 20 20" fill="none" xmlns="http://www.w3.org/2000/svg">
<circle cx="10" cy="4.90726" r="3.64945" stroke="#121212" stroke-width="2"/>
<path d="M1 16.4576V16.4576C0.999991 16.0167 1.0531 15.8053 1.13378 15.6485C1.21914 15.4824 1.3929 15.2669 1.83791 14.9316C2.67111 14.3038 3.77389 13.9409 5.69803 13.3122C6.4497 13.0666 7.50919 12.9172 8.43338 12.8321C8.88477 12.7906 9.28484 12.766 9.57166 12.7518C9.71484 12.7447 9.82919 12.7402 9.90692 12.7376C9.94576 12.7363 9.97541 12.7354 9.99489 12.7348L10 12.7347L10.0051 12.7348C10.0246 12.7354 10.0542 12.7363 10.0931 12.7376C10.1708 12.7402 10.2852 12.7447 10.4283 12.7518C10.7152 12.766 11.1152 12.7906 11.5666 12.8321C12.4908 12.9172 13.5503 13.0666 14.302 13.3122C16.2261 13.9409 17.3289 14.3038 18.1621 14.9316C18.6071 15.2669 18.7809 15.4824 18.8662 15.6484C18.9469 15.8053 19 16.0167 19 16.4576V17.7492C19 18.2974 18.5557 18.7418 18.0074 18.7418H1.99265C1.44435 18.7418 1.00001 18.2974 1.00001 17.7492V17.7492L1 16.4576Z" stroke="#121212" stroke-width="2"/>
</svg>
