<svg width="19" height="20" viewBox="0 0 19 20" fill="none" xmlns="http://www.w3.org/2000/svg">
<path fill-rule="evenodd" clip-rule="evenodd" d="M8.49615 15.8188C12.2642 15.8188 15.3188 12.7642 15.3188 8.99615C15.3188 5.2281 12.2642 2.17348 8.49615 2.17348C4.7281 2.17348 1.67348 5.2281 1.67348 8.99615C1.67348 12.7642 4.7281 15.8188 8.49615 15.8188ZM8.49615 17.4923C13.1884 17.4923 16.9923 13.6884 16.9923 8.99615C16.9923 4.30386 13.1884 0.5 8.49615 0.5C3.80386 0.5 0 4.30386 0 8.99615C0 13.6884 3.80386 17.4923 8.49615 17.4923Z" fill="#121212"/>
<path fill-rule="evenodd" clip-rule="evenodd" d="M17.8167 19.5L13.5686 15.2519L14.7519 14.0686L19 18.3167L17.8167 19.5Z" fill="#121212"/>
</svg>
