<svg width="24" height="24" viewBox="0 0 24 24" fill="none" xmlns="http://www.w3.org/2000/svg">
<path fill-rule="evenodd" clip-rule="evenodd" d="M8.60793 4.7037H15.3921C15.3394 4.62991 15.2831 4.55552 15.2229 4.48127C14.6224 3.73986 13.6395 3 12 3C10.3605 3 9.37761 3.73986 8.77706 4.48127C8.71693 4.55552 8.6606 4.62991 8.60793 4.7037ZM17.6882 4.7037C17.5056 4.29978 17.2149 3.76294 16.7771 3.22243C15.8776 2.112 14.3605 1 12 1C9.63951 1 8.12239 2.112 7.22294 3.22243C6.78512 3.76294 6.49439 4.29978 6.31176 4.7037H2V6.7037H3.94097L5.36954 23H18.6305L20.059 6.7037H22V4.7037H17.6882ZM18.0514 6.7037H5.94864L7.20189 21H16.7981L18.0514 6.7037Z" fill="#868686"/>
</svg>
