<svg width="20" height="21" viewBox="0 0 20 21" fill="none" xmlns="http://www.w3.org/2000/svg">
<path fill-rule="evenodd" clip-rule="evenodd" d="M14.6759 0.627069C11.5297 -0.0762104 8.26706 -0.0762104 5.12088 0.627069L4.78188 0.702069C3.8969 0.89993 3.08409 1.33925 2.43375 1.97123C1.78341 2.60322 1.321 3.40311 1.09788 4.28207C0.30038 7.42459 0.30038 10.7165 1.09788 13.8591C1.31066 14.6973 1.74129 15.4644 2.34612 16.0826C2.95094 16.7008 3.70846 17.148 4.54188 17.3791L5.00688 20.1551C5.02173 20.2432 5.05993 20.3258 5.11752 20.3941C5.1751 20.4625 5.24997 20.5142 5.33431 20.5438C5.41865 20.5734 5.50939 20.5799 5.59708 20.5625C5.68476 20.5451 5.76619 20.5046 5.83288 20.4451L8.56388 18.0021C10.614 18.1272 12.6715 17.9632 14.6759 17.5151L15.0159 17.4401C15.9009 17.2422 16.7137 16.8029 17.364 16.1709C18.0144 15.5389 18.4768 14.739 18.6999 13.8601C19.4973 10.7175 19.4973 7.4256 18.6999 4.28307C18.4767 3.40399 18.0141 2.604 17.3636 1.97201C16.7131 1.34001 15.9 0.900765 15.0149 0.703069L14.6759 0.627069ZM5.96488 4.20107C5.77903 4.17402 5.58952 4.21143 5.42788 4.30707H5.41388C5.03888 4.52707 4.70088 4.80407 4.41288 5.13007C4.17288 5.40707 4.04288 5.68707 4.00888 5.95707C3.98888 6.11707 4.00288 6.27907 4.04988 6.43207L4.06788 6.44207C4.33788 7.23507 4.68988 7.99807 5.11988 8.71607C5.67433 9.72456 6.35664 10.6573 7.14988 11.4911L7.17388 11.5251L7.21188 11.5531L7.23488 11.5801L7.26288 11.6041C8.09961 12.3997 9.0345 13.0852 10.0449 13.6441C11.1999 14.2731 11.9009 14.5701 12.3219 14.6941V14.7001C12.4449 14.7381 12.5569 14.7551 12.6699 14.7551C13.0284 14.7286 13.3678 14.5828 13.6339 14.3411C13.9589 14.0531 14.2339 13.7141 14.4479 13.3371V13.3301C14.6489 12.9501 14.5809 12.5921 14.2909 12.3491C13.7084 11.8401 13.0785 11.388 12.4099 10.9991C11.9619 10.7561 11.5069 10.9031 11.3229 11.1491L10.9299 11.6451C10.7279 11.8911 10.3619 11.8571 10.3619 11.8571L10.3519 11.8631C7.62088 11.1661 6.89188 8.40107 6.89188 8.40107C6.89188 8.40107 6.85788 8.02507 7.11088 7.83307L7.60288 7.43707C7.83888 7.24507 8.00288 6.79107 7.74988 6.34307C7.36349 5.67383 6.91232 5.04414 6.40288 4.46307C6.29177 4.32631 6.13595 4.23317 5.96288 4.20007L5.96488 4.20107ZM10.5789 2.99907C10.4463 2.99907 10.3191 3.05175 10.2253 3.14552C10.1316 3.23928 10.0789 3.36646 10.0789 3.49907C10.0789 3.63168 10.1316 3.75885 10.2253 3.85262C10.3191 3.94639 10.4463 3.99907 10.5789 3.99907C11.8439 3.99907 12.8939 4.41207 13.7249 5.20407C14.1519 5.63707 14.4849 6.15007 14.7029 6.71207C14.9219 7.27507 15.0219 7.87607 14.9959 8.47807C14.9931 8.54373 15.0033 8.60929 15.0259 8.67101C15.0485 8.73273 15.083 8.78939 15.1275 8.83777C15.2173 8.93548 15.3423 8.9935 15.4749 8.99907C15.6075 9.00464 15.7369 8.9573 15.8346 8.86747C15.9323 8.77764 15.9903 8.65268 15.9959 8.52007C16.0269 7.77955 15.904 7.04066 15.6349 6.35007C15.3646 5.6562 14.9548 5.02519 14.4309 4.49607L14.4209 4.48607C13.3899 3.50107 12.0849 2.99907 10.5789 2.99907ZM10.5449 4.64307C10.4123 4.64307 10.2851 4.69575 10.1913 4.78952C10.0976 4.88328 10.0449 5.01046 10.0449 5.14307C10.0449 5.27568 10.0976 5.40285 10.1913 5.49662C10.2851 5.59039 10.4123 5.64307 10.5449 5.64307H10.5619C11.4739 5.70807 12.1379 6.01207 12.6029 6.51107C13.0799 7.02507 13.3269 7.66407 13.3079 8.45407C13.3048 8.58668 13.3546 8.71507 13.4462 8.81099C13.5378 8.90692 13.6638 8.96252 13.7964 8.96557C13.929 8.96862 14.0574 8.91887 14.1533 8.82725C14.2492 8.73564 14.3048 8.60968 14.3079 8.47707C14.3319 7.44007 13.9979 6.54507 13.3359 5.83107V5.82907C12.6589 5.10307 11.7299 4.71907 10.6119 4.64407L10.5949 4.64207L10.5449 4.64307ZM10.5259 6.31807C10.459 6.31216 10.3916 6.3198 10.3277 6.34053C10.2638 6.36126 10.2047 6.39465 10.154 6.43871C10.1033 6.48277 10.062 6.53659 10.0325 6.59697C10.0031 6.65734 9.98611 6.72303 9.98261 6.79012C9.97912 6.8572 9.98917 6.9243 10.0122 6.98741C10.0352 7.05052 10.0707 7.10835 10.1165 7.15743C10.1624 7.20652 10.2177 7.24587 10.2791 7.27313C10.3405 7.30038 10.4067 7.31499 10.4739 7.31607C10.8919 7.33807 11.1589 7.46407 11.3269 7.63307C11.4959 7.80307 11.6219 8.07607 11.6449 8.50307C11.6461 8.57017 11.6609 8.63633 11.6882 8.69761C11.7156 8.75889 11.755 8.81404 11.8041 8.85976C11.8533 8.90549 11.9111 8.94085 11.9742 8.96375C12.0372 8.98666 12.1043 8.99663 12.1713 8.99307C12.2383 8.98951 12.3039 8.97249 12.3642 8.94304C12.4245 8.91358 12.4783 8.87229 12.5223 8.82162C12.5663 8.77095 12.5997 8.71194 12.6204 8.64811C12.6411 8.58427 12.6487 8.51692 12.6429 8.45007C12.6109 7.85007 12.4229 7.32007 12.0379 6.93007C11.6509 6.54007 11.1239 6.35007 10.5259 6.31807Z" fill="#2A8927"/>
</svg>
