<svg width="20" height="15" viewBox="0 0 20 15" fill="none" xmlns="http://www.w3.org/2000/svg">
<path d="M8 10.9844L13.19 7.98438L8 4.98438V10.9844ZM19.56 3.15438C19.69 3.62438 19.78 4.25437 19.84 5.05437C19.91 5.85437 19.94 6.54437 19.94 7.14437L20 7.98438C20 10.1744 19.84 11.7844 19.56 12.8144C19.31 13.7144 18.73 14.2944 17.83 14.5444C17.36 14.6744 16.5 14.7644 15.18 14.8244C13.88 14.8944 12.69 14.9244 11.59 14.9244L10 14.9844C5.81 14.9844 3.2 14.8244 2.17 14.5444C1.27 14.2944 0.69 13.7144 0.44 12.8144C0.31 12.3444 0.22 11.7144 0.16 10.9144C0.0900001 10.1144 0.0599999 9.42438 0.0599999 8.82438L0 7.98438C0 5.79437 0.16 4.18438 0.44 3.15438C0.69 2.25438 1.27 1.67438 2.17 1.42438C2.64 1.29438 3.5 1.20437 4.82 1.14437C6.12 1.07437 7.31 1.04437 8.41 1.04437L10 0.984375C14.19 0.984375 16.8 1.14438 17.83 1.42438C18.73 1.67438 19.31 2.25438 19.56 3.15438Z" fill="#2A8927"/>
</svg>
