<?xml version="1.0" encoding="utf-8"?><svg xmlns="http://www.w3.org/2000/svg" xmlns:xlink="http://www.w3.org/1999/xlink"><symbol viewBox="0 0 11 7" id="arrow_bottom" xmlns="http://www.w3.org/2000/svg"><path fill-rule="evenodd" clip-rule="evenodd" d="M.219 1.275l4.753 4.753a.747.747 0 001.056 0l4.753-4.753A.747.747 0 109.725.219L5.5 4.444 1.275.219A.747.747 0 00.219 1.275z"/></symbol><symbol viewBox="0 0 24 24" id="cart" xmlns="http://www.w3.org/2000/svg"><g clip-path="url(#bclip0_2230_10573)"><path d="M1.02 0C.75 0 .49.105.3.293a.99.99 0 000 1.414C.49 1.895.749 2 1.02 2h.502c.222 0 .437.071.614.202a1 1 0 01.366.524l3.236 11.1a3 3 0 001.1 1.57c.531.392 1.178.604 1.843.604h9.323c.612 0 1.21-.18 1.716-.516a3.012 3.012 0 001.127-1.37l3.007-7.372a1.964 1.964 0 00-.205-1.863 2.027 2.027 0 00-.733-.645A2.073 2.073 0 0021.962 4H4.995l-.532-1.824A3 3 0 003.364.606 3.102 3.102 0 001.522 0H1.02zm6.681 13.274L5.58 6h16.38l-3.008 7.372a1.004 1.004 0 01-.375.456 1.035 1.035 0 01-.572.172H8.681c-.222 0-.437-.071-.614-.202a1 1 0 01-.366-.524zM9.183 24c.402 0 .8-.078 1.17-.228.372-.151.71-.372.994-.65.284-.28.51-.61.664-.974a2.949 2.949 0 00-.664-3.27 3.065 3.065 0 00-.993-.65 3.114 3.114 0 00-3.336.65A2.97 2.97 0 006.122 21c0 .796.322 1.559.896 2.121A3.093 3.093 0 009.183 24zm0-2c-.271 0-.53-.105-.722-.293a.99.99 0 010-1.414 1.031 1.031 0 011.443 0 .99.99 0 010 1.414c-.191.188-.45.293-.721.293zm8.162 2c.402 0 .8-.078 1.171-.228.372-.151.71-.372.993-.65.285-.28.51-.61.664-.974a2.949 2.949 0 00-.664-3.27 3.065 3.065 0 00-.993-.65 3.114 3.114 0 00-3.335.65A2.97 2.97 0 0014.284 21c0 .796.322 1.559.897 2.121a3.093 3.093 0 002.164.879zm0-2c-.27 0-.53-.105-.721-.293a.99.99 0 010-1.414 1.03 1.03 0 011.442 0 .99.99 0 010 1.414c-.191.188-.45.293-.721.293z"/></g><defs><clipPath id="bclip0_2230_10573"><path d="M0 0h24v24H0z"/></clipPath></defs></symbol><symbol viewBox="0 0 20 21" id="facebook" xmlns="http://www.w3.org/2000/svg"><path d="M20 10.984c0-5.52-4.48-10-10-10s-10 4.48-10 10c0 4.84 3.44 8.87 8 9.8v-6.8H6v-3h2v-2.5c0-1.93 1.57-3.5 3.5-3.5H14v3h-2c-.55 0-1 .45-1 1v2h3v3h-3v6.95c5.05-.5 9-4.76 9-9.95z"/></symbol><symbol viewBox="0 0 24 24" id="like" xmlns="http://www.w3.org/2000/svg"><path fill-rule="evenodd" clip-rule="evenodd" d="M11.993 3.733c-2.34-2.062-5.8-2.484-8.488-.169C.598 6.07.176 10.286 2.475 13.268c.872 1.132 2.575 2.833 4.212 4.39a185.818 185.818 0 004.122 3.793l.016.014c.076.068.172.153.263.223.11.083.267.186.476.25.28.083.579.083.858 0 .21-.064.367-.167.476-.25.092-.07.187-.155.264-.223l.015-.014c.815-.728 2.467-2.217 4.123-3.793 1.636-1.557 3.34-3.258 4.212-4.39 2.29-2.97 1.932-7.22-1.041-9.712-2.717-2.277-6.141-1.886-8.478.177zm-.76 2.086c-1.705-2.01-4.415-2.456-6.429-.721-2.103 1.812-2.386 4.81-.75 6.933.763.99 2.353 2.588 4.006 4.161a182.955 182.955 0 003.933 3.622c.847-.758 2.39-2.153 3.934-3.622 1.653-1.573 3.242-3.171 4.006-4.161 1.644-2.134 1.382-5.146-.74-6.925-2.068-1.732-4.742-1.288-6.44.713a.997.997 0 01-1.52 0z"/></symbol><symbol viewBox="0 0 20 16" id="mail" xmlns="http://www.w3.org/2000/svg"><path d="M2.308 15.5c-.505 0-.933-.175-1.283-.525A1.745 1.745 0 01.5 13.692V2.308c0-.505.175-.933.525-1.283C1.375.675 1.803.5 2.308.5h15.384c.505 0 .933.175 1.283.525.35.35.525.778.525 1.283v11.384c0 .505-.175.933-.525 1.283-.35.35-.778.525-1.283.525H2.308zM18 3.442l-7.514 4.81a1.181 1.181 0 01-.238.103.848.848 0 01-.496 0 1.181 1.181 0 01-.239-.103L2 3.442v10.25a.3.3 0 00.087.221.3.3 0 00.22.087h15.385a.3.3 0 00.221-.087.3.3 0 00.087-.22V3.442zM10 7l7.846-5H2.154L10 7zM2 3.673V2.53v.03-.032 1.145z"/></symbol><symbol viewBox="0 0 16 20" id="mark" xmlns="http://www.w3.org/2000/svg"><path d="M8.002 9.865c.497 0 .923-.177 1.276-.531.353-.354.53-.78.53-1.278s-.178-.923-.532-1.276a1.745 1.745 0 00-1.278-.53c-.497 0-.923.177-1.276.532-.353.354-.53.78-.53 1.277 0 .498.177.923.532 1.277.354.353.78.53 1.278.53zM8 17.514c1.956-1.752 3.454-3.432 4.491-5.04 1.038-1.608 1.557-3.017 1.557-4.226 0-1.823-.58-3.322-1.738-4.496C11.152 2.578 9.715 1.99 8 1.99c-1.715 0-3.152.588-4.31 1.762C2.53 4.926 1.951 6.425 1.951 8.248c0 1.209.519 2.618 1.557 4.226 1.037 1.608 2.535 3.288 4.491 5.04zm0 1.996c-2.517-2.181-4.404-4.21-5.662-6.089C1.081 11.543.452 9.82.452 8.248c0-2.308.746-4.176 2.24-5.605C4.183 1.214 5.953.5 8 .5s3.816.714 5.309 2.143c1.493 1.43 2.239 3.297 2.239 5.605 0 1.57-.629 3.295-1.886 5.173C12.404 15.3 10.517 17.33 8 19.51z"/></symbol><symbol viewBox="0 0 19 16" id="menu" xmlns="http://www.w3.org/2000/svg"><path d="M.5 1V0h18v2H.5V1zM.5 8V7h18v2H.5V8zM.5 15v-1h18v2H.5v-1z"/></symbol><symbol viewBox="0 0 24 24" id="person" xmlns="http://www.w3.org/2000/svg"><path fill-rule="evenodd" clip-rule="evenodd" d="M12 4c-1.963 0-3.553 1.567-3.553 3.5S10.037 11 12 11c1.963 0 3.553-1.567 3.553-3.5S13.963 4 12 4zM6.416 7.5C6.416 4.462 8.916 2 12 2c3.084 0 5.584 2.462 5.584 5.5S15.084 13 12 13c-3.084 0-5.584-2.462-5.584-5.5zM12 16a8.918 8.918 0 00-7.093 3.509c-.1.13-.177.231-.24.32a2.618 2.618 0 00-.106.152c.151.017.366.019.766.019h13.346c.4 0 .615-.002.766-.019a2.653 2.653 0 00-.105-.153 15.87 15.87 0 00-.241-.32A8.918 8.918 0 0012 16zm-8.713 2.303A10.96 10.96 0 0112 14a10.96 10.96 0 018.74 4.339c.172.224.357.465.489.697.16.28.278.605.27 1a1.998 1.998 0 01-.222.85c-.118.235-.3.491-.554.687-.338.262-.707.355-1.034.393a8.733 8.733 0 01-.97.034H5.281c-.342 0-.683 0-.97-.034-.327-.038-.696-.131-1.034-.393a2.028 2.028 0 01-.554-.687 1.998 1.998 0 01-.223-.85c-.007-.395.111-.72.271-1 .132-.233.317-.473.489-.697l.027-.036z"/></symbol><symbol viewBox="0 0 18 18" id="phone" xmlns="http://www.w3.org/2000/svg"><path d="M16.44 17.5c-1.884 0-3.778-.438-5.68-1.314-1.901-.877-3.649-2.113-5.242-3.71-1.593-1.595-2.827-3.343-3.704-5.241C.938 5.335.5 3.445.5 1.56A1.032 1.032 0 011.55.5h3.261c.253 0 .476.082.669.247.193.165.315.368.368.61L6.421 4.3c.04.273.032.508-.025.704-.056.196-.158.36-.304.494l-2.31 2.248c.372.68.797 1.325 1.275 1.932a19.06 19.06 0 001.55 1.74 17.268 17.268 0 003.753 2.842l2.244-2.264c.156-.163.346-.277.568-.342.223-.066.454-.082.693-.048l2.777.565c.253.067.459.196.619.387.16.19.239.407.239.65v3.242a1.032 1.032 0 01-1.06 1.05zM3.073 6.327l1.785-1.708a.178.178 0 00.062-.106.234.234 0 00-.005-.125l-.434-2.234a.206.206 0 00-.068-.116A.194.194 0 004.288 2H2.15a.13.13 0 00-.096.038.13.13 0 00-.039.097 12.792 12.792 0 001.058 4.192zm8.7 8.642c.663.31 1.354.545 2.074.709.72.163 1.393.26 2.018.291a.13.13 0 00.135-.134V13.73a.194.194 0 00-.039-.125.206.206 0 00-.115-.068l-2.1-.427a.158.158 0 00-.1-.004.246.246 0 00-.092.062l-1.781 1.8z"/></symbol><symbol viewBox="0 0 19 20" id="search" xmlns="http://www.w3.org/2000/svg"><path fill-rule="evenodd" clip-rule="evenodd" d="M8.496 15.819a6.823 6.823 0 100-13.645 6.823 6.823 0 000 13.645zm0 1.673A8.496 8.496 0 108.496.5a8.496 8.496 0 000 16.992z"/><path fill-rule="evenodd" clip-rule="evenodd" d="M17.817 19.5l-4.248-4.248 1.183-1.183L19 18.317 17.817 19.5z"/></symbol><symbol viewBox="0 0 20 21" id="viber" xmlns="http://www.w3.org/2000/svg"><path fill-rule="evenodd" clip-rule="evenodd" d="M14.676.627a21.9 21.9 0 00-9.555 0l-.34.075a4.905 4.905 0 00-3.683 3.58 19.467 19.467 0 000 9.577 4.905 4.905 0 003.444 3.52l.465 2.776a.5.5 0 00.826.29l2.73-2.443a21.9 21.9 0 006.113-.487l.34-.075a4.905 4.905 0 003.684-3.58 19.47 19.47 0 000-9.577 4.905 4.905 0 00-3.685-3.58l-.34-.076zM5.965 4.201a.822.822 0 00-.537.106h-.014c-.375.22-.713.497-1.001.823-.24.277-.37.557-.404.827-.02.16-.006.322.04.475l.019.01c.27.793.622 1.556 1.052 2.274a13.374 13.374 0 002.03 2.775l.024.034.038.028.023.027.028.024a13.568 13.568 0 002.782 2.04c1.155.63 1.856.926 2.277 1.05v.006c.123.038.235.055.348.055a1.61 1.61 0 00.964-.414c.325-.288.6-.627.814-1.004v-.007c.2-.38.133-.738-.157-.98A12.12 12.12 0 0012.41 11c-.448-.244-.903-.097-1.087.15l-.393.495c-.202.246-.568.212-.568.212l-.01.006c-2.731-.697-3.46-3.462-3.46-3.462s-.034-.376.219-.568l.492-.396c.236-.192.4-.646.147-1.094a11.806 11.806 0 00-1.347-1.88.748.748 0 00-.44-.263l.002.001zM10.579 3a.5.5 0 000 1c1.265 0 2.315.413 3.146 1.205.427.433.76.946.978 1.508.219.563.319 1.164.293 1.766a.5.5 0 101 .042 5.36 5.36 0 00-.361-2.17 5.443 5.443 0 00-1.204-1.854l-.01-.01C13.39 3.501 12.085 3 10.579 3zm-.034 1.644a.5.5 0 000 1h.017c.912.065 1.576.37 2.04.868.478.514.725 1.153.706 1.943a.5.5 0 101 .023c.024-1.037-.31-1.932-.972-2.646V5.83c-.677-.726-1.606-1.11-2.724-1.185l-.017-.002-.05.001zm-.02 1.675a.5.5 0 10-.051.998c.418.022.685.148.853.317.169.17.295.443.318.87a.5.5 0 10.998-.053c-.032-.6-.22-1.13-.605-1.52-.387-.39-.914-.58-1.512-.612z"/></symbol><symbol viewBox="0 0 20 15" id="youtube" xmlns="http://www.w3.org/2000/svg"><path d="M8 10.984l5.19-3-5.19-3v6zm11.56-7.83c.13.47.22 1.1.28 1.9.07.8.1 1.49.1 2.09l.06.84c0 2.19-.16 3.8-.44 4.83-.25.9-.83 1.48-1.73 1.73-.47.13-1.33.22-2.65.28-1.3.07-2.49.1-3.59.1l-1.59.06c-4.19 0-6.8-.16-7.83-.44-.9-.25-1.48-.83-1.73-1.73-.13-.47-.22-1.1-.28-1.9-.07-.8-.1-1.49-.1-2.09L0 7.984c0-2.19.16-3.8.44-4.83.25-.9.83-1.48 1.73-1.73.47-.13 1.33-.22 2.65-.28 1.3-.07 2.49-.1 3.59-.1L10 .984c4.19 0 6.8.16 7.83.44.9.25 1.48.83 1.73 1.73z"/></symbol></svg>